<svg version="1" xmlns="http://www.w3.org/2000/svg" width="933.333" height="933.333" viewBox="0 0 700.000000 700.000000"><path d="M0 350v350h700V0H0v350zM697.1 3c0 .3.1 156.5.2 347.3.2 307.6 0 346.7-1.3 346.8-2 0-678.6.1-687 0l-6.5-.1.2-344.7c.1-189.7.2-345.8.2-347C3 4.1 3.7 3 4.7 2.8c2.8-.5 692.3-.3 692.4.2z"/><path d="M122.5 54.7C92.9 58.2 66 74.1 48.2 98.6c-2.9 3.9-5.2 7.4-5.2 7.7 0 .3-1.5 3.1-3.3 6.4-11.2 19.8-17.9 49.7-18.1 80.3 0 9.4 1.2 31.9 1.9 32.9.2.4.6 3.1 1 6.1.3 3 .8 6.2 1.1 7.1l.9 4.5c.6 4.7 4.4 21.2 7 30.5 2.4 8.6 11.5 34.7 14 40.4.8 1.6 3.5 7.7 6 13.5 11.9 26.6 26.2 51.4 47.4 81.5 4.6 6.6 9.8 13.8 11.5 16 3.6 4.6 20.6 25.5 22.1 27.1.5.6 3.7 4.2 7 8 7.8 9 43.9 45.1 53.5 53.6 20.4 17.9 36.9 31.3 54 43.9 17.1 12.7 19.6 14.4 21.1 15.4 6.6 4.1 39.1 27.5 40.9 29.5.3.3 2.8 2.3 5.5 4.5 12.1 9.6 27.1 26.1 31.5 34.8l1.4 2.7 1.1-3.3c1.8-5.1 9.2-14.2 19.6-24 11.2-10.5 12.2-11.4 17.4-15.3 2.2-1.6 4.2-3.1 4.5-3.4 1.4-1.5 10.8-8.3 32.5-23.5 13.2-9.3 26.3-18.6 29-20.7 2.8-2.2 6.6-5.2 8.5-6.6 4.9-3.8 25-20.2 28-22.9 1.4-1.2 3.6-3.1 5-4.3 16.8-14.5 47-44.2 60-59 4-4.7 8-9.1 8.7-9.8 3.5-3.5 24.9-31 32.5-41.7C629 364.4 652.7 316 665.9 268c1.1-4.1 2.2-8.6 2.5-10 .2-1.4 1.1-5.7 1.9-9.5.9-3.9 1.8-8.8 2.1-11 .4-2.3.8-5 1-6.1.3-1.2.7-5.7 1.1-10 .4-4.3.9-9 1.1-10.4.5-3.2.5-27.7-.1-35-4.5-56.7-32.1-99.2-74.7-115-13.7-5.1-23.2-6.5-42.8-6.5-17.1 0-21.7.5-39 4.6-21.6 5-52.1 17.8-73.7 31-3.6 2.1-6.7 3.9-6.8 3.9-1.6 0-46.1 31.2-48.5 33.9-.3.3-3.9 3.3-8 6.6s-7.7 6.3-8 6.6c-.3.3-4.1 3.6-8.5 7.4-4.4 3.9-10 8.8-12.4 11.1l-4.4 4.2-2.1-2.2c-1.1-1.2-6.4-6-11.7-10.6-52.2-46.3-103.5-77.3-148.6-90-13.2-3.7-14.4-4-28.6-5.9-6.4-.9-28.8-1.1-35.2-.4zm227 141.2c.3.5.2 1.2-.3 1.5-.5.3-.9-.1-.9-.9 0-1.7.3-1.9 1.2-.6z"/></svg>